<svg xmlns="http://www.w3.org/2000/svg" width="100" height="100" viewBox="0 0 100 100" fill="none">
  <path d="M50 9.36121C40.1062 9.36162 30.5353 12.8825 22.9999 19.2939C15.4644 25.7053 10.4563 34.5888 8.87139 44.3549C7.28652 54.121 9.22841 64.1323 14.3496 72.5977C19.4708 81.063 27.437 87.4299 36.823 90.5591C38.9063 90.9237 39.6876 89.6738 39.6876 88.5799C39.6876 87.5904 39.6355 84.3091 39.6355 80.8195C29.1667 82.7466 26.4583 78.2676 25.625 75.9238C24.7003 73.6443 23.2345 71.6243 21.3542 70.0383C19.8958 69.257 17.8125 67.33 21.302 67.278C22.6345 67.4225 23.9124 67.8862 25.0276 68.6296C26.1428 69.373 27.0624 70.3743 27.7083 71.5487C28.2782 72.5724 29.0445 73.4736 29.9633 74.2007C30.8821 74.9278 31.9353 75.4665 33.0626 75.7858C34.19 76.1051 35.3692 76.1989 36.5328 76.0616C37.6964 75.9244 38.8215 75.559 39.8437 74.9862C40.024 72.8679 40.9681 70.8874 42.5 69.4134C33.2292 68.3717 23.5417 64.7778 23.5417 48.8405C23.4831 44.6994 25.0112 40.6929 27.8125 37.6426C26.5387 34.0435 26.6877 30.0938 28.2292 26.6009C28.2292 26.6009 31.7186 25.5071 39.6875 30.8717C46.5054 28.9966 53.703 28.9966 60.5208 30.8717C68.4895 25.4551 71.9792 26.6009 71.9792 26.6009C73.5208 30.0937 73.6699 34.0435 72.3958 37.6426C75.2056 40.6877 76.735 44.6977 76.6667 48.8405C76.6667 64.83 66.927 68.3717 57.6562 69.4134C58.6506 70.4213 59.4165 71.6313 59.9018 72.9614C60.387 74.2914 60.5804 75.7103 60.4688 77.1217C60.4688 82.6947 60.4166 87.1737 60.4166 88.5801C60.4166 89.6739 61.1979 90.9759 63.2812 90.5592C72.6507 87.4045 80.594 81.0227 85.6934 72.5531C90.7927 64.0834 92.7162 54.0772 91.1203 44.3205C89.5245 34.5639 84.5132 25.6919 76.9811 19.2883C69.449 12.8847 59.8863 9.36635 50 9.36121Z" fill="white"/>
</svg>