<?xml version="1.0" encoding="UTF-8"?>
<svg version="1.1" xmlns="http://www.w3.org/2000/svg" width="500" height="500">
<path d="M0 0 C4.96311668 2.84978081 6.31617039 5.67410754 8.03479672 11.03869513 C8.75512111 13.24189218 8.75512111 13.24189218 9.48210308 15.48959833 C9.97445634 17.03196796 10.46680961 18.57433759 10.95805921 20.16344309 C11.41834518 21.58210616 11.87863114 23.00076923 12.35287262 24.46240087 C14.06631509 29.76138539 15.74838708 35.07046863 17.43421053 40.37828947 C21.23355263 52.21661184 25.03289474 64.05493421 28.94736842 76.31578947 C59.39473684 76.31578947 89.84210526 76.31578947 121.05263158 76.31578947 C128.62977442 52.68332517 128.62977442 52.68332517 136.16750617 29.03828132 C137.12422316 26.07953893 138.08227944 23.12149654 139.04460526 20.16344309 C139.52639405 18.62107246 140.00818283 17.07870183 140.49947061 15.48959833 C141.20716631 13.28730126 141.20716631 13.28730126 141.93520355 11.03869513 C142.37426356 9.76183821 142.81332357 8.48498129 143.26267148 7.16944244 C145.01189276 3.47960542 146.53768646 2.02876605 150 0 C154.32083776 -0.54076229 156.83401754 -0.63832234 160.60399507 1.63037891 C163.53060295 4.28550231 164.48945388 6.24886267 165.86239463 9.93363231 C166.32429324 11.14329862 166.78619184 12.35296493 167.26208211 13.61523679 C167.74461524 14.93486284 168.22714836 16.25448889 168.72430414 17.61410414 C169.24366941 19.0201789 169.76303468 20.42625366 170.29814207 21.84790441 C172.01844942 26.22959624 173.71579242 30.61939469 175.40789474 35.11513158 C176.48330498 38.00261257 177.55824541 40.89005262 178.63735082 43.77851563 C180.78130083 49.53151771 182.91428135 55.29985611 185.03568308 61.07177734 C187.18739371 66.90816257 189.36972883 72.72913883 191.57934307 78.54068154 C192.12039286 79.95788836 192.66144264 81.37509518 193.21625093 82.83524764 C194.23958344 85.50526871 195.26735196 88.17260363 196.30105607 90.83659787 C203.44133443 109.71519121 204.35765453 127.15672904 197.20394737 146.21710526 C189.07743463 164.10238453 174.59397562 174.16689439 159.21052632 185.52631579 C158.19284539 186.27982371 157.17516447 187.03333163 156.12664474 187.80967837 C152.04068245 190.83100755 147.95001775 193.84562839 143.84958367 196.84737357 C135.87874547 202.68702373 128.02498434 208.63808019 120.21710526 214.63815789 C103.21827718 227.57123701 103.21827718 227.57123701 94.73684211 233.96052632 C93.89439575 234.60262258 93.05194939 235.24471884 92.18396112 235.90485712 C80.79756593 244.46127512 80.79756593 244.46127512 75.08223684 245.31907895 C65.86815462 244.00936005 57.60819229 235.30752279 50.41118421 229.76973684 C41.34435668 222.82641653 32.23953726 215.95485542 23.02631579 209.21052632 C11.66247257 200.88350005 0.43541497 192.39161063 -10.73704276 183.80448355 C-14.54792114 180.88075399 -18.38024887 178.00259262 -22.28104934 175.20045723 C-38.17712915 163.69723566 -48.55935267 149.49787251 -52.09704276 129.87767763 C-53.74525641 114.20614261 -50.12899574 100.30107465 -44.49013158 85.77631579 C-43.93630364 84.29929713 -43.38247571 82.82227847 -42.81697676 81.30718293 C-41.53849611 77.99668515 -40.25486764 74.69956258 -38.96064187 71.40021074 C-37.01686767 66.25059724 -35.07879578 61.09392187 -33.14310544 55.93617088 C-30.88884941 50.17253056 -28.62461221 44.41203524 -26.48026316 38.65131579 C-26.05374887 37.53603823 -25.62723457 36.42076067 -25.18780356 35.27169479 C-23.95349924 32.04856983 -22.71453833 28.82726712 -21.47409539 25.60649671 C-20.92984481 24.18352238 -20.92984481 24.18352238 -20.37460188 22.73443792 C-19.30745086 19.96146287 -18.21551816 17.19539288 -17.10526316 14.47368421 C-16.67505445 13.40694789 -16.24484574 12.34021158 -15.80159515 11.24641833 C-15.35469011 10.17860091 -14.90778506 9.11078349 -14.44734272 8.02130449 C-14.04407604 7.05319049 -13.64080936 6.08507649 -13.22531449 5.08764167 C-10.07038412 -0.51434512 -5.83491137 -0.59539912 0 0 Z " fill="#FFFFFF" transform="translate(175,128)"/>
</svg>
