<?xml version="1.0" encoding="UTF-8"?>
<svg version="1.1" xmlns="http://www.w3.org/2000/svg" width="2400" height="2400">
<path d="M0 0 C2.56094654 0.23372402 5.12281718 0.45186236 7.68548584 0.66583252 C101.39886257 8.52509951 194.29207897 27.45081292 436.6932373 120.34246826 C438.50105679 121.23007122 440.31036896 122.11456409 442.12005615 122.99835205 C457.23790678 130.38839203 472.03222297 138.1683239 486.60736084 146.57598877 C490.6588552 148.89240003 494.7435664 151.14732663 498.82659912 153.40753174 C511.93213135 160.67492484 524.77724775 168.30557976 537.496521 176.22784424 C538.80290527 177.03826172 538.80290527 177.03826172 540.13568115 177.86505127 C563.09772404 192.14784744 585.59367708 207.36642279 607.496521 223.22784424 C608.23692627 223.76393311 608.97733154 224.30002197 609.74017334 224.85235596 C625.07226758 235.98769751 640.06267085 247.53395154 654.72625732 259.53570557 C659.06059923 263.07991328 663.44883246 266.54481448 667.871521 269.97784424 C672.80331994 273.81567301 677.48994262 277.83329482 682.090271 282.06768799 C684.55454182 284.27993112 687.09648555 286.34912108 689.684021 288.41534424 C695.02804637 292.73459202 700.03282184 297.36601901 705.01873779 302.09185791 C708.05860826 304.97028288 711.12494146 307.79770172 714.28900146 310.53961182 C728.60727158 323.03828449 741.98197999 336.55354427 755.39959717 350.00054932 C758.05175975 352.65846764 760.70847138 355.31178697 763.36647892 357.9638586 C765.44710678 360.0408527 767.52532264 362.12024717 769.60284233 364.20034981 C770.58156792 365.17973382 771.56101265 366.15839981 772.54124641 367.13627434 C777.53053622 372.11616084 782.41916848 377.12514308 786.99604797 382.48925781 C789.68309417 385.60271735 792.54289667 388.5560741 795.371521 391.54034424 C800.2617743 396.73543108 804.90081817 402.04137181 809.355896 407.61846924 C811.64772564 410.41215939 814.04883912 413.06993202 816.496521 415.72784424 C820.91534019 420.53974857 825.06885861 425.51054057 829.168396 430.59503174 C830.67083838 432.44215207 832.19168962 434.27312268 833.715271 436.10284424 C841.33983677 445.269445 848.70027595 454.59475144 855.88763428 464.10723877 C857.49588047 466.22699999 859.11683419 468.33635229 860.74261475 470.44268799 C868.54216541 480.55447411 876.08961188 490.8254777 883.496521 501.22784424 C884.28566895 502.32926758 884.28566895 502.32926758 885.09075928 503.45294189 C911.59321747 540.48832447 935.40983038 579.42318676 957.496521 619.22784424 C958.02793701 620.18481201 958.55935303 621.14177979 959.10687256 622.12774658 C999.25100786 694.76316239 1031.56922855 772.14664083 1100.465271 1086.13018799 C1100.52775024 1086.79248917 1100.59022949 1087.45479034 1100.65460205 1088.13716125 C1101.38123771 1096.15809643 1101.92893526 1104.19440248 1102.496521 1112.22784424 C1102.63638931 1114.19677895 1102.63638931 1114.19677895 1102.77908325 1116.20549011 C1104.5383662 1141.85071735 1104.85978618 1167.44386877 1104.81457901 1193.14345169 C1104.80893721 1196.40122782 1104.80611763 1199.65899874 1104.80349731 1202.91677856 C1104.76811585 1233.17545729 1104.53500467 1263.31799135 1101.74975586 1293.4710083 C1101.48301348 1296.3748935 1101.22901406 1299.27972012 1100.97650146 1302.18487549 C1092.97013251 1393.27255546 1074.86933785 1483.29070526 1046.496521 1570.22784424 C1046.23204163 1571.03848328 1045.96756226 1571.84912231 1045.69506836 1572.68432617 C1033.74226137 1609.21203831 1019.94667282 1644.99638569 1004.41461182 1680.14880371 C1003.51318053 1682.19011828 1002.61543458 1684.23302174 1001.71820068 1686.27618408 C987.79332556 1717.91875542 972.55524666 1749.1513311 955.496521 1779.22784424 C954.56644126 1780.88023852 953.63636159 1782.53263283 952.70628357 1784.18502808 C943.94940347 1799.72401464 934.91884242 1815.08122393 925.496521 1830.22784424 C924.95914307 1831.0944165 924.42176514 1831.96098877 923.86810303 1832.8538208 C916.42329268 1844.82214556 908.64635497 1856.55697033 900.746521 1868.22784424 C900.31048553 1868.87261719 899.87445007 1869.51739014 899.42520142 1870.18170166 C891.09616024 1882.48307896 882.50609283 1894.58704316 873.684021 1906.54034424 C873.09709473 1907.3359375 872.51016846 1908.13153076 871.90545654 1908.95123291 C857.39486816 1928.56491558 842.39307832 1947.80199377 826.58465576 1966.38775635 C823.65368439 1969.83924283 820.77937349 1973.33002687 817.934021 1976.85284424 C814.05839167 1981.61591641 809.98417811 1986.16148673 805.82855225 1990.68096924 C803.87246848 1992.81726173 801.95464402 1994.97565081 800.059021 1997.16534424 C796.29664865 2001.49031432 792.42219646 2005.71016673 788.53485107 2009.92242432 C786.72945703 2011.88153108 784.93753859 2013.84969394 783.15643311 2015.83111572 C773.31754332 2026.69115793 762.89299256 2036.98367947 752.52288818 2047.33184814 C749.78082038 2050.06818369 747.04331805 2052.80903606 744.30709457 2055.55121422 C742.17090438 2057.69103946 740.03231189 2059.82845109 737.893013 2061.965168 C736.88292661 2062.97459512 735.87356069 2063.98474379 734.8649826 2064.99567795 C729.78930049 2070.08063078 724.69292072 2075.07611872 719.22370911 2079.73876953 C716.1129527 2082.4206712 713.16435529 2085.27795047 710.184021 2088.10284424 C704.98893415 2092.99309754 699.68299342 2097.63214141 694.105896 2102.08721924 C691.31220584 2104.37904889 688.65443322 2106.78016236 685.996521 2109.22784424 C681.19011379 2113.64161536 676.22542016 2117.79144734 671.14691162 2121.88653564 C669.24813299 2123.42971461 667.36396361 2124.98975221 665.480896 2126.55206299 C656.94835653 2133.62867628 648.32414294 2140.52332124 639.496521 2147.22784424 C637.45454149 2148.81077409 635.41288272 2150.39411776 633.371521 2151.97784424 C628.04458379 2156.08443452 622.65611705 2160.10593122 617.246521 2164.10284424 C616.5335083 2164.6310376 615.82049561 2165.15923096 615.08587646 2165.70343018 C601.12715016 2175.97915556 586.84915119 2185.7764991 572.42327881 2195.38189697 C569.75994769 2197.15639842 567.10078892 2198.93702932 564.4418335 2200.71807861 C548.78568591 2211.17477689 532.85658998 2221.19211598 516.621521 2230.72784424 C515.7219165 2231.25716553 514.82231201 2231.78648682 513.89544678 2232.33184814 C441.50690826 2274.77255785 365.85829651 2309.0598338 286.496521 2336.22784424 C285.82056885 2336.45945251 285.1446167 2336.69106079 284.44818115 2336.9296875 C200.18888502 2365.72338697 111.83468855 2383.7687973 11.746521 2393.41534424 C10.4629924 2393.53370132 10.4629924 2393.53370132 9.15353394 2393.65444946 C2.60612129 2394.25114906 -3.94563006 2394.76035485 -10.503479 2395.22784424 C-11.7279776 2395.31611481 -12.9524762 2395.40438538 -14.21408081 2395.49533081 C-39.96292082 2397.31147894 -65.67354725 2397.59125595 -91.47899246 2397.54590225 C-94.73926086 2397.54026069 -97.99952405 2397.53744106 -101.25979614 2397.53482056 C-131.17535394 2397.4998592 -160.98380927 2397.29094805 -190.79089355 2394.4810791 C-193.66412226 2394.2128473 -196.5384011 2393.95925187 -199.41314697 2393.70782471 C-294.44863949 2385.3213072 -388.00901072 2366.06743296 -728.503479 2218.22784424 C-729.37005127 2217.69046631 -730.23662354 2217.15308838 -731.12945557 2216.59942627 C-743.09778032 2209.15461592 -754.8326051 2201.37767821 -766.503479 2193.47784424 C-767.14825195 2193.04180878 -767.7930249 2192.60577332 -768.45733643 2192.15652466 C-780.75871373 2183.82748348 -792.86267793 2175.23741607 -804.815979 2166.41534424 C-805.61157227 2165.82841797 -806.40716553 2165.2414917 -807.22686768 2164.63677979 C-826.84055035 2150.12619141 -846.07762854 2135.12440156 -864.66339111 2119.315979 C-868.11487759 2116.38500763 -871.60566163 2113.51069673 -875.128479 2110.66534424 C-879.89155118 2106.78971491 -884.4371215 2102.71550135 -888.956604 2098.55987549 C-891.09289649 2096.60379172 -893.25128558 2094.68596727 -895.440979 2092.79034424 C-899.76594908 2089.02797189 -903.9858015 2085.1535197 -908.19805908 2081.26617432 C-910.15716584 2079.46078028 -912.1253287 2077.66886184 -914.10675049 2075.88775635 C-924.96679269 2066.04886656 -935.25931424 2055.6243158 -945.60748291 2045.25421143 C-948.34381845 2042.51214362 -951.08467083 2039.77464129 -953.82684898 2037.03841782 C-955.96667422 2034.90222762 -958.10408585 2032.76363513 -960.24080276 2030.62433624 C-961.25022988 2029.61424985 -962.26037856 2028.60488393 -963.27131271 2027.59630585 C-968.35626554 2022.52062373 -973.35175349 2017.42424396 -978.0144043 2011.95503235 C-980.69630597 2008.84427594 -983.55358524 2005.89567854 -986.378479 2002.91534424 C-991.26873231 1997.72025739 -995.90777618 1992.41431666 -1000.362854 1986.83721924 C-1002.65468365 1984.04352908 -1005.05579713 1981.38575646 -1007.503479 1978.72784424 C-1011.9222982 1973.9159399 -1016.07581662 1968.94514791 -1020.175354 1963.86065674 C-1021.67779638 1962.0135364 -1023.19864763 1960.18256579 -1024.722229 1958.35284424 C-1032.34679478 1949.18624347 -1039.70723395 1939.86093703 -1046.89459229 1930.34844971 C-1048.50283848 1928.22868849 -1050.1237922 1926.11933619 -1051.74957275 1924.01300049 C-1059.54912342 1913.90121437 -1067.09656989 1903.63021078 -1074.503479 1893.22784424 C-1075.29262695 1892.1264209 -1075.29262695 1892.1264209 -1076.09771729 1891.00274658 C-1123.71418974 1824.4619653 -1164.11653442 1752.30742539 -1196.62255859 1677.25531006 C-1197.45991913 1675.32809865 -1198.30346176 1673.40377007 -1199.15045166 1671.48077393 C-1212.43764342 1641.31323432 -1223.87341448 1610.42129714 -1234.503479 1579.22784424 C-1234.73530884 1578.54780334 -1234.96713867 1577.86776245 -1235.20599365 1577.16711426 C-1265.09457265 1489.24702148 -1283.87531554 1396.95195989 -1293.74176025 1278.67706299 C-1293.80501495 1277.82871384 -1293.86826965 1276.98036469 -1293.93344116 1276.10630798 C-1295.15115536 1258.90858697 -1295.66955432 1241.7349339 -1295.706604 1224.49737549 C-1295.71362543 1222.46605406 -1295.72071225 1220.43473286 -1295.7278595 1218.40341187 C-1295.74725772 1211.94905275 -1295.75229336 1205.49472956 -1295.753479 1199.04034424 C-1295.75392086 1197.94114277 -1295.75436272 1196.8419413 -1295.75481796 1195.70943069 C-1295.76149275 1164.05735181 -1295.6704132 1132.52829854 -1292.75671387 1100.98468018 C-1292.48997149 1098.08079497 -1292.23597207 1095.17596835 -1291.98345947 1092.27081299 C-1283.77958248 998.93314294 -1264.89866591 906.78337762 -1171.40588379 663.05090332 C-1169.95212349 660.11398304 -1168.51631882 657.16829631 -1167.07769775 654.22393799 C-1160.54554407 640.92139344 -1153.55257043 627.96803815 -1146.15826416 615.1272583 C-1144.47122835 612.17133661 -1142.8166802 609.19940511 -1141.17144775 606.22003174 C-1127.06425991 580.67677946 -1111.71127452 556.16810984 -1095.39138794 531.99642944 C-1092.30921158 527.43130891 -1089.25178418 522.85027238 -1086.20269775 518.26300049 C-1082.78211894 513.12289657 -1079.32930417 508.01144463 -1075.753479 502.97784424 C-1075.260896 502.28295898 -1074.76831299 501.58807373 -1074.26080322 500.87213135 C-1060.60124639 481.6765897 -1046.30838934 463.00678078 -1031.394104 444.77081299 C-1029.03030697 441.88028369 -1026.69730083 438.96714984 -1024.378479 436.04034424 C-1020.02180373 430.58082857 -1015.50317805 425.26113813 -1010.9697876 419.94854736 C-1009.49405486 418.21678507 -1008.0238778 416.4804223 -1006.55426025 414.74346924 C-1000.58330001 407.70741879 -994.45328713 400.85498573 -988.16363525 394.10284424 C-986.10926406 391.88255467 -984.10011251 389.64567117 -982.128479 387.35284424 C-969.74695067 373.11534988 -956.29934416 359.86549603 -942.95172119 346.54571533 C-940.1648641 343.76460412 -937.38259096 340.97895668 -934.60157967 338.19200134 C-932.42764781 336.01443641 -930.25131609 333.83928246 -928.07427597 331.66482544 C-927.04744314 330.63865172 -926.02133033 329.61175691 -924.99600601 328.58407593 C-919.87336891 323.45222767 -914.72453398 318.3982869 -909.2040863 313.69033813 C-906.27786723 311.17383856 -903.4977644 308.50077028 -900.690979 305.85284424 C-895.68879067 301.16672456 -890.55716173 296.74579042 -885.20269775 292.46221924 C-882.26351937 290.02920906 -879.47394001 287.46013055 -876.690979 284.85284424 C-871.92208131 280.40166591 -866.94196989 276.33270715 -861.77886963 272.34893799 C-857.81942458 269.28719844 -853.98227824 266.11972072 -850.190979 262.85284424 C-843.24829036 256.90014143 -835.98370819 251.39568314 -828.6885376 245.8850708 C-826.54191787 244.25699765 -824.40574905 242.61623485 -822.27301025 240.97003174 C-812.16672874 233.17402575 -801.90052403 225.63096422 -791.503479 218.22784424 C-790.76919678 217.70174561 -790.03491455 217.17564697 -789.27838135 216.63360596 C-752.24299878 190.13114777 -713.30813648 166.31453485 -673.503479 144.22784424 C-672.54651123 143.69642822 -671.58954346 143.16501221 -670.60357666 142.61749268 C-639.05131876 125.17919352 -606.68734014 109.34617308 -573.56884766 95.11663818 C-571.56957359 94.25628685 -569.5725775 93.39086658 -567.57623291 92.52374268 C-490.17554985 58.95158794 -408.82409906 34.58700517 -197.43609619 0.48498535 C-194.64657073 0.24039097 -191.85823857 -0.01508249 -189.06988525 -0.27264404 C-126.9566769 -5.88846246 -62.09534174 -5.75628239 0 0 Z M-656.503479 545.22784424 C-661.503479 550.22784424 -661.503479 550.22784424 -663.07891846 551.73956299 C-681.13202458 569.27409256 -693.13349801 594.14121133 -699.503479 618.22784424 C-699.83581543 619.46776123 -699.83581543 619.46776123 -700.17486572 620.73272705 C-705.86197346 643.07151191 -706.07640811 669.84836514 -700.503479 692.22784424 C-700.33718994 692.94714111 -700.17090088 693.66643799 -699.99957275 694.40753174 C-693.36317267 722.82115581 -678.4988752 747.26262854 -658.503479 768.22784424 C-657.71328369 769.08249268 -656.92308838 769.93714111 -656.10894775 770.81768799 C-629.77305787 798.46382115 -589.70959429 813.66204204 -551.98297119 814.57940674 C-507.88356253 814.93373744 -468.79104427 797.78378831 -437.503479 767.22784424 C-415.39100481 744.8846885 -401.77076716 716.87387786 -395.503479 686.22784424 C-395.1341626 684.42573486 -395.1341626 684.42573486 -394.75738525 682.58721924 C-388.12106076 642.49466573 -398.29341497 600.34652365 -421.503479 567.22784424 C-424.03803674 563.76647061 -426.69026213 560.4658017 -429.503479 557.22784424 C-430.22277588 556.39897705 -430.94207275 555.57010986 -431.6831665 554.71612549 C-433.92245712 552.18626948 -436.20168914 549.70087453 -438.503479 547.22784424 C-439.16605713 546.49952393 -439.82863525 545.77120361 -440.5112915 545.02081299 C-464.51466158 519.6940632 -502.5681256 502.59084195 -537.45513916 501.10186768 C-581.36893312 500.07105807 -625.64419386 512.05411271 -656.503479 545.22784424 Z M255.17572021 900.26031494 C186.86889948 901.57148056 114.17197082 925.43183635 63.79730225 973.06768799 C61.83147961 974.91335847 59.82778704 976.67549284 57.7855835 978.43487549 C46.41989546 988.34535402 35.6373678 999.22489276 26.496521 1011.22784424 C25.70374756 1012.22686768 24.91097412 1013.22589111 24.09417725 1014.25518799 C19.43980836 1020.14472015 15.06004353 1026.18537583 10.871521 1032.41534424 C10.43332031 1033.06342041 9.99511963 1033.71149658 9.54364014 1034.37921143 C7.25344936 1037.53315046 7.25344936 1037.53315046 6.496521 1041.22784424 C5.836521 1041.22784424 5.176521 1041.22784424 4.496521 1041.22784424 C4.496521 1003.27784424 4.496521 965.32784424 4.496521 926.22784424 C-78.333479 926.22784424 -161.163479 926.22784424 -246.503479 926.22784424 C-246.503479 1207.05784424 -246.503479 1487.88784424 -246.503479 1777.22784424 C-163.673479 1777.22784424 -80.843479 1777.22784424 4.496521 1777.22784424 C4.5873999 1729.29598877 4.5873999 1729.29598877 4.68011475 1680.39581299 C4.7206113 1660.1477649 4.76134108 1639.89971769 4.80316162 1619.65167236 C4.82372751 1609.68882261 4.84425484 1599.72597278 4.86467268 1589.76312273 C4.86744186 1588.41196558 4.87021242 1587.06080844 4.87298439 1585.7096513 C4.91842511 1563.55442306 4.96052652 1541.39918986 5.00117361 1519.24395236 C5.04174379 1497.17128206 5.08592232 1475.09862108 5.13339955 1453.02596456 C5.16254606 1439.42328918 5.18893082 1425.82061435 5.21169997 1412.21792678 C5.22761757 1402.87010477 5.24706313 1393.5222941 5.26918941 1384.17448475 C5.28182362 1378.79405764 5.29299237 1373.41363894 5.29994011 1368.03320122 C5.34970616 1330.95355275 5.34970616 1330.95355275 5.93122864 1314.7646637 C5.9857627 1313.24472645 5.9857627 1313.24472645 6.04139847 1311.69408339 C8.11157886 1262.7794995 21.83490184 1210.77324533 58.5824585 1176.26300049 C87.64224626 1150.13539591 126.46026573 1140.01608109 164.809021 1139.97784424 C165.51283905 1139.97683716 166.2166571 1139.97583008 166.94180298 1139.97479248 C178.99020357 1139.98639964 190.67836639 1140.77761022 202.496521 1143.22784424 C203.17907959 1143.36706299 203.86163818 1143.50628174 204.56488037 1143.64971924 C214.78622223 1145.82919588 224.12596695 1149.71741956 233.496521 1154.22784424 C234.9795874 1154.93747314 234.9795874 1154.93747314 236.49261475 1155.66143799 C267.25315055 1171.42119001 286.26828126 1202.29306125 296.621521 1234.29034424 C302.17737649 1252.19152694 305.45298152 1270.61988576 307.496521 1289.22784424 C307.5855039 1290.03450067 307.6744868 1290.8411571 307.76616615 1291.67225766 C308.70065605 1301.35754712 308.64995582 1311.02207061 308.65473938 1320.74169922 C308.65931151 1322.71546186 308.66431248 1324.68922355 308.66970295 1326.66298413 C308.68321927 1332.06301896 308.69068345 1337.46304754 308.69712961 1342.86309481 C308.70516229 1348.69525665 308.71885012 1354.52740559 308.73184204 1360.35955811 C308.75356422 1370.45632267 308.77172421 1380.55308857 308.78744698 1390.6498642 C308.81018448 1405.24800766 308.83831862 1419.84613741 308.86776625 1434.44426861 C308.91548134 1458.13025865 308.95868007 1481.81625497 308.99920654 1505.5022583 C309.03857856 1528.50747129 309.08002292 1551.51267903 309.12420654 1574.5178833 C309.12698388 1575.96547468 309.12976116 1577.41306607 309.13253838 1578.86065745 C309.1540522 1590.06899344 309.17569759 1601.27732917 309.1973747 1612.48566484 C309.30354881 1667.39971408 309.39930233 1722.31377701 309.496521 1777.22784424 C395.956521 1777.22784424 482.416521 1777.22784424 571.496521 1777.22784424 C571.55396917 1682.03916978 571.55396917 1682.03916978 571.59285092 1586.85049212 C571.59693276 1573.0321602 571.60110829 1559.21382831 571.60557298 1545.39549651 C571.60611268 1543.7243594 571.60664942 1542.05322229 571.60718317 1540.38208518 C571.61569505 1513.80860596 571.63068613 1487.23513534 571.64911544 1460.6616613 C571.66804435 1433.31770989 571.68030659 1405.97376322 571.68435098 1378.62980538 C571.68492716 1374.75493608 571.68557843 1370.8800668 571.68627548 1367.00519753 C571.68641033 1366.24267511 571.68654517 1365.4801527 571.68668411 1364.69452355 C571.68903436 1352.49086023 571.69827449 1340.28721169 571.71018506 1328.08355436 C571.72205062 1315.77186589 571.72643445 1303.46019187 571.72352375 1291.1484979 C571.72214992 1284.49519843 571.72409044 1277.84193286 571.73493195 1271.18863869 C571.83677801 1237.75017839 571.83677801 1237.75017839 570.59561157 1204.3419342 C570.55591999 1203.66622754 570.51622842 1202.99052087 570.47533406 1202.29433825 C567.44711607 1152.73514587 557.07043045 1103.12711796 535.496521 1058.22784424 C535.11415283 1057.41154541 534.73178467 1056.59524658 534.33782959 1055.75421143 C517.99382827 1020.8897292 493.05982241 987.88463338 462.496521 964.22784424 C461.24331727 963.22338349 459.9907582 962.2181181 458.7387085 961.21221924 C448.21863447 952.85682623 437.18339696 945.83266483 425.496521 939.22784424 C424.36488525 938.57670654 424.36488525 938.57670654 423.21038818 937.91241455 C372.93509904 909.16157887 312.48766001 899.45845422 255.17572021 900.26031494 Z M-678.503479 926.22784424 C-678.503479 1207.05784424 -678.503479 1487.88784424 -678.503479 1777.22784424 C-592.043479 1777.22784424 -505.583479 1777.22784424 -416.503479 1777.22784424 C-416.503479 1496.39784424 -416.503479 1215.56784424 -416.503479 926.22784424 C-502.963479 926.22784424 -589.423479 926.22784424 -678.503479 926.22784424 Z " fill="#FEFEFE" transform="translate(1295.5034790039063,2.77215576171875)"/>
</svg>
