<svg width="159" height="27" viewBox="0 0 159 27" fill="none" xmlns="http://www.w3.org/2000/svg">
<path d="M9.7583 20L6.1083 13.375H5.0833V20H0.808301V2.45H7.9833C9.36663 2.45 10.5416 2.69167 11.5083 3.175C12.4916 3.65833 13.225 4.325 13.7083 5.175C14.1916 6.00833 14.4333 6.94167 14.4333 7.975C14.4333 9.14167 14.1 10.1833 13.4333 11.1C12.7833 12.0167 11.8166 12.6667 10.5333 13.05L14.5833 20H9.7583ZM5.0833 10.35H7.7333C8.51663 10.35 9.09997 10.1583 9.4833 9.775C9.8833 9.39167 10.0833 8.85 10.0833 8.15C10.0833 7.48333 9.8833 6.95833 9.4833 6.575C9.09997 6.19167 8.51663 6 7.7333 6H5.0833V10.35ZM21.3919 13C21.3919 11.5667 21.6586 10.3083 22.1919 9.225C22.7419 8.14167 23.4836 7.30833 24.4169 6.725C25.3502 6.14167 26.3919 5.85 27.5419 5.85C28.5252 5.85 29.3836 6.05 30.1169 6.45C30.8669 6.85 31.4419 7.375 31.8419 8.025V6.05H36.1169V20H31.8419V18.025C31.4252 18.675 30.8419 19.2 30.0919 19.6C29.3586 20 28.5002 20.2 27.5169 20.2C26.3836 20.2 25.3502 19.9083 24.4169 19.325C23.4836 18.725 22.7419 17.8833 22.1919 16.8C21.6586 15.7 21.3919 14.4333 21.3919 13ZM31.8419 13.025C31.8419 11.9583 31.5419 11.1167 30.9419 10.5C30.3586 9.88333 29.6419 9.575 28.7919 9.575C27.9419 9.575 27.2169 9.88333 26.6169 10.5C26.0336 11.1 25.7419 11.9333 25.7419 13C25.7419 14.0667 26.0336 14.9167 26.6169 15.55C27.2169 16.1667 27.9419 16.475 28.7919 16.475C29.6419 16.475 30.3586 16.1667 30.9419 15.55C31.5419 14.9333 31.8419 14.0917 31.8419 13.025ZM58.1097 6.05V20H53.8347V18.1C53.4013 18.7167 52.8097 19.2167 52.0597 19.6C51.3263 19.9667 50.5097 20.15 49.6097 20.15C48.543 20.15 47.6013 19.9167 46.7847 19.45C45.968 18.9667 45.3347 18.275 44.8847 17.375C44.4347 16.475 44.2097 15.4167 44.2097 14.2V6.05H48.4597V13.625C48.4597 14.5583 48.7013 15.2833 49.1847 15.8C49.668 16.3167 50.318 16.575 51.1347 16.575C51.968 16.575 52.6263 16.3167 53.1097 15.8C53.593 15.2833 53.8347 14.5583 53.8347 13.625V6.05H58.1097ZM70.5804 1.5V20H66.3054V1.5H70.5804Z" fill="#002265"/>
<path d="M80.3534 4.075C79.9201 4.075 79.5534 3.925 79.2534 3.625C78.9534 3.325 78.8034 2.95833 78.8034 2.525C78.8034 2.09167 78.9534 1.725 79.2534 1.425C79.5534 1.125 79.9201 0.974999 80.3534 0.974999C80.7701 0.974999 81.1201 1.125 81.4034 1.425C81.7034 1.725 81.8534 2.09167 81.8534 2.525C81.8534 2.95833 81.7034 3.325 81.4034 3.625C81.1201 3.925 80.7701 4.075 80.3534 4.075ZM81.4534 6.3V20H79.1784V6.3H81.4534ZM89.6058 13.1C89.6058 11.7 89.8891 10.475 90.4558 9.425C91.0224 8.35833 91.7974 7.53333 92.7808 6.95C93.7808 6.36667 94.8974 6.075 96.1308 6.075C97.3141 6.075 98.3474 6.34167 99.2308 6.875C100.131 7.39167 100.789 8.03333 101.206 8.8V6.3H103.506V26.5H101.206V17.475C100.772 18.2417 100.106 18.8917 99.2058 19.425C98.3058 19.9583 97.2558 20.225 96.0558 20.225C94.8558 20.225 93.7641 19.925 92.7808 19.325C91.7974 18.725 91.0224 17.8833 90.4558 16.8C89.8891 15.7167 89.6058 14.4833 89.6058 13.1ZM101.206 13.125C101.206 12.0917 100.997 11.1917 100.581 10.425C100.164 9.65833 99.5974 9.075 98.8808 8.675C98.1808 8.25833 97.4058 8.05 96.5558 8.05C95.7058 8.05 94.9308 8.25 94.2308 8.65C93.5308 9.05 92.9724 9.63333 92.5558 10.4C92.1391 11.1667 91.9308 12.0667 91.9308 13.1C91.9308 14.15 92.1391 15.0667 92.5558 15.85C92.9724 16.6167 93.5308 17.2083 94.2308 17.625C94.9308 18.025 95.7058 18.225 96.5558 18.225C97.4058 18.225 98.1808 18.025 98.8808 17.625C99.5974 17.2083 100.164 16.6167 100.581 15.85C100.997 15.0667 101.206 14.1583 101.206 13.125ZM114.75 8.85C115.217 8.03333 115.9 7.36667 116.8 6.85C117.7 6.33333 118.725 6.075 119.875 6.075C121.109 6.075 122.217 6.36667 123.2 6.95C124.184 7.53333 124.959 8.35833 125.525 9.425C126.092 10.475 126.375 11.7 126.375 13.1C126.375 14.4833 126.092 15.7167 125.525 16.8C124.959 17.8833 124.175 18.725 123.175 19.325C122.192 19.925 121.092 20.225 119.875 20.225C118.692 20.225 117.65 19.9667 116.75 19.45C115.867 18.9333 115.2 18.275 114.75 17.475V20H112.475V1.5H114.75V8.85ZM124.05 13.1C124.05 12.0667 123.842 11.1667 123.425 10.4C123.009 9.63333 122.442 9.05 121.725 8.65C121.025 8.25 120.25 8.05 119.4 8.05C118.567 8.05 117.792 8.25833 117.075 8.675C116.375 9.075 115.809 9.66667 115.375 10.45C114.959 11.2167 114.75 12.1083 114.75 13.125C114.75 14.1583 114.959 15.0667 115.375 15.85C115.809 16.6167 116.375 17.2083 117.075 17.625C117.792 18.025 118.567 18.225 119.4 18.225C120.25 18.225 121.025 18.025 121.725 17.625C122.442 17.2083 123.009 16.6167 123.425 15.85C123.842 15.0667 124.05 14.15 124.05 13.1ZM133.645 13.1C133.645 11.7 133.928 10.475 134.495 9.425C135.061 8.35833 135.836 7.53333 136.82 6.95C137.82 6.36667 138.928 6.075 140.145 6.075C141.345 6.075 142.386 6.33333 143.27 6.85C144.153 7.36667 144.811 8.01667 145.245 8.8V6.3H147.545V20H145.245V17.45C144.795 18.25 144.12 18.9167 143.22 19.45C142.336 19.9667 141.303 20.225 140.12 20.225C138.903 20.225 137.803 19.925 136.82 19.325C135.836 18.725 135.061 17.8833 134.495 16.8C133.928 15.7167 133.645 14.4833 133.645 13.1ZM145.245 13.125C145.245 12.0917 145.036 11.1917 144.62 10.425C144.203 9.65833 143.636 9.075 142.92 8.675C142.22 8.25833 141.445 8.05 140.595 8.05C139.745 8.05 138.97 8.25 138.27 8.65C137.57 9.05 137.011 9.63333 136.595 10.4C136.178 11.1667 135.97 12.0667 135.97 13.1C135.97 14.15 136.178 15.0667 136.595 15.85C137.011 16.6167 137.57 17.2083 138.27 17.625C138.97 18.025 139.745 18.225 140.595 18.225C141.445 18.225 142.22 18.025 142.92 17.625C143.636 17.2083 144.203 16.6167 144.62 15.85C145.036 15.0667 145.245 14.1583 145.245 13.125ZM158.789 1.5V20H156.514V1.5H158.789Z" fill="#14279B"/>
</svg>
